<mxfile host="65bd71144e">
    <diagram id="NiahCJ6EAsQBf5cnewkv" name="Page-1">
        <mxGraphModel dx="1115" dy="836" grid="0" gridSize="10" guides="1" tooltips="1" connect="1" arrows="1" fold="1" page="0" pageScale="1" pageWidth="850" pageHeight="1100" math="0" shadow="0">
            <root>
                <mxCell id="0"/>
                <mxCell id="1" parent="0"/>
                <mxCell id="whLFaRSz3Np-lKLS9v4o-2" value="" style="edgeStyle=entityRelationEdgeStyle;endArrow=ERzeroToMany;startArrow=ERone;endFill=1;startFill=0;rounded=0;" parent="1" source="whLFaRSz3Np-lKLS9v4o-25" target="whLFaRSz3Np-lKLS9v4o-8" edge="1">
                    <mxGeometry width="100" height="100" relative="1" as="geometry">
                        <mxPoint x="260" y="928" as="sourcePoint"/>
                        <mxPoint x="360" y="828" as="targetPoint"/>
                    </mxGeometry>
                </mxCell>
                <mxCell id="whLFaRSz3Np-lKLS9v4o-4" value="statement" style="shape=table;startSize=30;container=1;collapsible=1;childLayout=tableLayout;fixedRows=1;rowLines=0;fontStyle=1;align=center;resizeLast=1;hachureGap=4;" parent="1" vertex="1">
                    <mxGeometry x="395" y="426" width="250" height="144.25" as="geometry"/>
                </mxCell>
                <mxCell id="whLFaRSz3Np-lKLS9v4o-5" value="" style="shape=partialRectangle;collapsible=0;dropTarget=0;pointerEvents=0;fillColor=none;points=[[0,0.5],[1,0.5]];portConstraint=eastwest;top=0;left=0;right=0;bottom=1;hachureGap=4;" parent="whLFaRSz3Np-lKLS9v4o-4" vertex="1">
                    <mxGeometry y="30" width="250" height="30" as="geometry"/>
                </mxCell>
                <mxCell id="whLFaRSz3Np-lKLS9v4o-6" value="PK" style="shape=partialRectangle;overflow=hidden;connectable=0;fillColor=none;top=0;left=0;bottom=0;right=0;fontStyle=1;hachureGap=4;" parent="whLFaRSz3Np-lKLS9v4o-5" vertex="1">
                    <mxGeometry width="30" height="30" as="geometry">
                        <mxRectangle width="30" height="30" as="alternateBounds"/>
                    </mxGeometry>
                </mxCell>
                <mxCell id="whLFaRSz3Np-lKLS9v4o-7" value="statement_id" style="shape=partialRectangle;overflow=hidden;connectable=0;fillColor=none;top=0;left=0;bottom=0;right=0;align=left;spacingLeft=6;fontStyle=5;hachureGap=4;" parent="whLFaRSz3Np-lKLS9v4o-5" vertex="1">
                    <mxGeometry x="30" width="220" height="30" as="geometry">
                        <mxRectangle width="220" height="30" as="alternateBounds"/>
                    </mxGeometry>
                </mxCell>
                <mxCell id="whLFaRSz3Np-lKLS9v4o-8" value="" style="shape=partialRectangle;collapsible=0;dropTarget=0;pointerEvents=0;fillColor=none;points=[[0,0.5],[1,0.5]];portConstraint=eastwest;top=0;left=0;right=0;bottom=0;hachureGap=4;" parent="whLFaRSz3Np-lKLS9v4o-4" vertex="1">
                    <mxGeometry y="60" width="250" height="37" as="geometry"/>
                </mxCell>
                <mxCell id="whLFaRSz3Np-lKLS9v4o-9" value="FK1" style="shape=partialRectangle;overflow=hidden;connectable=0;fillColor=none;top=0;left=0;bottom=0;right=0;hachureGap=4;" parent="whLFaRSz3Np-lKLS9v4o-8" vertex="1">
                    <mxGeometry width="30" height="37" as="geometry">
                        <mxRectangle width="30" height="37" as="alternateBounds"/>
                    </mxGeometry>
                </mxCell>
                <mxCell id="whLFaRSz3Np-lKLS9v4o-10" value="ticker_id                         INT " style="shape=partialRectangle;overflow=hidden;connectable=0;fillColor=none;top=0;left=0;bottom=0;right=0;align=left;spacingLeft=6;hachureGap=4;" parent="whLFaRSz3Np-lKLS9v4o-8" vertex="1">
                    <mxGeometry x="30" width="220" height="37" as="geometry">
                        <mxRectangle width="220" height="37" as="alternateBounds"/>
                    </mxGeometry>
                </mxCell>
                <mxCell id="whLFaRSz3Np-lKLS9v4o-11" value="" style="shape=partialRectangle;collapsible=0;dropTarget=0;pointerEvents=0;fillColor=none;points=[[0,0.5],[1,0.5]];portConstraint=eastwest;top=0;left=0;right=0;bottom=0;hachureGap=4;" parent="whLFaRSz3Np-lKLS9v4o-4" vertex="1">
                    <mxGeometry y="97" width="250" height="46" as="geometry"/>
                </mxCell>
                <mxCell id="whLFaRSz3Np-lKLS9v4o-12" value="" style="shape=partialRectangle;overflow=hidden;connectable=0;fillColor=none;top=0;left=0;bottom=0;right=0;hachureGap=4;" parent="whLFaRSz3Np-lKLS9v4o-11" vertex="1">
                    <mxGeometry width="30" height="46" as="geometry">
                        <mxRectangle width="30" height="46" as="alternateBounds"/>
                    </mxGeometry>
                </mxCell>
                <mxCell id="whLFaRSz3Np-lKLS9v4o-13" value="expression                  VARCHAR      &#10;TimeStamp                 BIGINT       &#10;Polarity                       TINYINT   " style="shape=partialRectangle;overflow=hidden;connectable=0;fillColor=none;top=0;left=0;bottom=0;right=0;align=left;spacingLeft=6;hachureGap=4;" parent="whLFaRSz3Np-lKLS9v4o-11" vertex="1">
                    <mxGeometry x="30" width="220" height="46" as="geometry">
                        <mxRectangle width="220" height="46" as="alternateBounds"/>
                    </mxGeometry>
                </mxCell>
                <mxCell id="whLFaRSz3Np-lKLS9v4o-24" value="ticker" style="shape=table;startSize=30;container=1;collapsible=1;childLayout=tableLayout;fixedRows=1;rowLines=0;fontStyle=1;align=center;resizeLast=1;hachureGap=4;" parent="1" vertex="1">
                    <mxGeometry x="40" y="328" width="250" height="142" as="geometry"/>
                </mxCell>
                <mxCell id="whLFaRSz3Np-lKLS9v4o-25" value="" style="shape=partialRectangle;collapsible=0;dropTarget=0;pointerEvents=0;fillColor=none;points=[[0,0.5],[1,0.5]];portConstraint=eastwest;top=0;left=0;right=0;bottom=1;hachureGap=4;" parent="whLFaRSz3Np-lKLS9v4o-24" vertex="1">
                    <mxGeometry y="30" width="250" height="33" as="geometry"/>
                </mxCell>
                <mxCell id="whLFaRSz3Np-lKLS9v4o-26" value="PK" style="shape=partialRectangle;overflow=hidden;connectable=0;fillColor=none;top=0;left=0;bottom=0;right=0;fontStyle=1;hachureGap=4;" parent="whLFaRSz3Np-lKLS9v4o-25" vertex="1">
                    <mxGeometry width="30" height="33" as="geometry">
                        <mxRectangle width="30" height="33" as="alternateBounds"/>
                    </mxGeometry>
                </mxCell>
                <mxCell id="whLFaRSz3Np-lKLS9v4o-27" value="ticker_id" style="shape=partialRectangle;overflow=hidden;connectable=0;fillColor=none;top=0;left=0;bottom=0;right=0;align=left;spacingLeft=6;fontStyle=5;hachureGap=4;" parent="whLFaRSz3Np-lKLS9v4o-25" vertex="1">
                    <mxGeometry x="30" width="220" height="33" as="geometry">
                        <mxRectangle width="220" height="33" as="alternateBounds"/>
                    </mxGeometry>
                </mxCell>
                <mxCell id="whLFaRSz3Np-lKLS9v4o-28" value="" style="shape=partialRectangle;collapsible=0;dropTarget=0;pointerEvents=0;fillColor=none;points=[[0,0.5],[1,0.5]];portConstraint=eastwest;top=0;left=0;right=0;bottom=0;hachureGap=4;" parent="whLFaRSz3Np-lKLS9v4o-24" vertex="1">
                    <mxGeometry y="63" width="250" height="79" as="geometry"/>
                </mxCell>
                <mxCell id="whLFaRSz3Np-lKLS9v4o-29" value="" style="shape=partialRectangle;overflow=hidden;connectable=0;fillColor=none;top=0;left=0;bottom=0;right=0;hachureGap=4;" parent="whLFaRSz3Np-lKLS9v4o-28" vertex="1">
                    <mxGeometry width="30" height="79" as="geometry">
                        <mxRectangle width="30" height="79" as="alternateBounds"/>
                    </mxGeometry>
                </mxCell>
                <mxCell id="whLFaRSz3Np-lKLS9v4o-30" value="Name                     VARCHAR" style="shape=partialRectangle;overflow=hidden;connectable=0;fillColor=none;top=0;left=0;bottom=0;right=0;align=left;spacingLeft=6;hachureGap=4;" parent="whLFaRSz3Np-lKLS9v4o-28" vertex="1">
                    <mxGeometry x="30" width="220" height="79" as="geometry">
                        <mxRectangle width="220" height="79" as="alternateBounds"/>
                    </mxGeometry>
                </mxCell>
                <mxCell id="2" value="prices" style="shape=table;startSize=30;container=1;collapsible=1;childLayout=tableLayout;fixedRows=1;rowLines=0;fontStyle=1;align=center;resizeLast=1;hachureGap=4;" vertex="1" parent="1">
                    <mxGeometry x="-49" y="650" width="250" height="143" as="geometry"/>
                </mxCell>
                <mxCell id="3" value="" style="shape=partialRectangle;collapsible=0;dropTarget=0;pointerEvents=0;fillColor=none;points=[[0,0.5],[1,0.5]];portConstraint=eastwest;top=0;left=0;right=0;bottom=1;hachureGap=4;" vertex="1" parent="2">
                    <mxGeometry y="30" width="250" height="43" as="geometry"/>
                </mxCell>
                <mxCell id="4" value="PK" style="shape=partialRectangle;overflow=hidden;connectable=0;fillColor=none;top=0;left=0;bottom=0;right=0;fontStyle=1;hachureGap=4;" vertex="1" parent="3">
                    <mxGeometry width="30" height="43" as="geometry">
                        <mxRectangle width="30" height="43" as="alternateBounds"/>
                    </mxGeometry>
                </mxCell>
                <mxCell id="5" value="time_stamp                 BIGINT" style="shape=partialRectangle;overflow=hidden;connectable=0;fillColor=none;top=0;left=0;bottom=0;right=0;align=left;spacingLeft=6;fontStyle=0;hachureGap=4;" vertex="1" parent="3">
                    <mxGeometry x="30" width="220" height="43" as="geometry">
                        <mxRectangle width="220" height="43" as="alternateBounds"/>
                    </mxGeometry>
                </mxCell>
                <mxCell id="6" value="" style="shape=partialRectangle;collapsible=0;dropTarget=0;pointerEvents=0;fillColor=none;points=[[0,0.5],[1,0.5]];portConstraint=eastwest;top=0;left=0;right=0;bottom=0;hachureGap=4;" vertex="1" parent="2">
                    <mxGeometry y="73" width="250" height="43" as="geometry"/>
                </mxCell>
                <mxCell id="7" value="FK" style="shape=partialRectangle;overflow=hidden;connectable=0;fillColor=none;top=0;left=0;bottom=0;right=0;hachureGap=4;" vertex="1" parent="6">
                    <mxGeometry width="30" height="43" as="geometry">
                        <mxRectangle width="30" height="43" as="alternateBounds"/>
                    </mxGeometry>
                </mxCell>
                <mxCell id="8" value="ticker_id                          INT" style="shape=partialRectangle;overflow=hidden;connectable=0;fillColor=none;top=0;left=0;bottom=0;right=0;align=left;spacingLeft=6;hachureGap=4;fontStyle=0" vertex="1" parent="6">
                    <mxGeometry x="30" width="220" height="43" as="geometry">
                        <mxRectangle width="220" height="43" as="alternateBounds"/>
                    </mxGeometry>
                </mxCell>
                <mxCell id="9" value="" style="shape=partialRectangle;collapsible=0;dropTarget=0;pointerEvents=0;fillColor=none;points=[[0,0.5],[1,0.5]];portConstraint=eastwest;top=0;left=0;right=0;bottom=0;hachureGap=4;" vertex="1" parent="2">
                    <mxGeometry y="116" width="250" height="27" as="geometry"/>
                </mxCell>
                <mxCell id="10" value="" style="shape=partialRectangle;overflow=hidden;connectable=0;fillColor=none;top=0;left=0;bottom=0;right=0;hachureGap=4;" vertex="1" parent="9">
                    <mxGeometry width="30" height="27" as="geometry">
                        <mxRectangle width="30" height="27" as="alternateBounds"/>
                    </mxGeometry>
                </mxCell>
                <mxCell id="11" value="price                            DOUBLE" style="shape=partialRectangle;overflow=hidden;connectable=0;fillColor=none;top=0;left=0;bottom=0;right=0;align=left;spacingLeft=6;hachureGap=4;" vertex="1" parent="9">
                    <mxGeometry x="30" width="220" height="27" as="geometry">
                        <mxRectangle width="220" height="27" as="alternateBounds"/>
                    </mxGeometry>
                </mxCell>
                <mxCell id="12" value="" style="edgeStyle=none;html=1;entryX=0.5;entryY=0;entryDx=0;entryDy=0;" edge="1" parent="1" source="whLFaRSz3Np-lKLS9v4o-28" target="2">
                    <mxGeometry relative="1" as="geometry"/>
                </mxCell>
                <mxCell id="13" value="sentiment" style="shape=table;startSize=30;container=1;collapsible=1;childLayout=tableLayout;fixedRows=1;rowLines=0;fontStyle=1;align=center;resizeLast=1;hachureGap=4;" vertex="1" parent="1">
                    <mxGeometry x="258" y="653.38" width="250" height="136" as="geometry"/>
                </mxCell>
                <mxCell id="14" value="" style="shape=partialRectangle;collapsible=0;dropTarget=0;pointerEvents=0;fillColor=none;points=[[0,0.5],[1,0.5]];portConstraint=eastwest;top=0;left=0;right=0;bottom=1;hachureGap=4;" vertex="1" parent="13">
                    <mxGeometry y="30" width="250" height="43" as="geometry"/>
                </mxCell>
                <mxCell id="15" value="PK" style="shape=partialRectangle;overflow=hidden;connectable=0;fillColor=none;top=0;left=0;bottom=0;right=0;fontStyle=1;hachureGap=4;" vertex="1" parent="14">
                    <mxGeometry width="30" height="43" as="geometry">
                        <mxRectangle width="30" height="43" as="alternateBounds"/>
                    </mxGeometry>
                </mxCell>
                <mxCell id="16" value="time_stamp                         BIGINT" style="shape=partialRectangle;overflow=hidden;connectable=0;fillColor=none;top=0;left=0;bottom=0;right=0;align=left;spacingLeft=6;fontStyle=0;hachureGap=4;" vertex="1" parent="14">
                    <mxGeometry x="30" width="220" height="43" as="geometry">
                        <mxRectangle width="220" height="43" as="alternateBounds"/>
                    </mxGeometry>
                </mxCell>
                <mxCell id="17" value="" style="shape=partialRectangle;collapsible=0;dropTarget=0;pointerEvents=0;fillColor=none;points=[[0,0.5],[1,0.5]];portConstraint=eastwest;top=0;left=0;right=0;bottom=0;hachureGap=4;" vertex="1" parent="13">
                    <mxGeometry y="73" width="250" height="43" as="geometry"/>
                </mxCell>
                <mxCell id="18" value="FK" style="shape=partialRectangle;overflow=hidden;connectable=0;fillColor=none;top=0;left=0;bottom=0;right=0;hachureGap=4;" vertex="1" parent="17">
                    <mxGeometry width="30" height="43" as="geometry">
                        <mxRectangle width="30" height="43" as="alternateBounds"/>
                    </mxGeometry>
                </mxCell>
                <mxCell id="19" value="ticker_id                                  INT" style="shape=partialRectangle;overflow=hidden;connectable=0;fillColor=none;top=0;left=0;bottom=0;right=0;align=left;spacingLeft=6;hachureGap=4;" vertex="1" parent="17">
                    <mxGeometry x="30" width="220" height="43" as="geometry">
                        <mxRectangle width="220" height="43" as="alternateBounds"/>
                    </mxGeometry>
                </mxCell>
                <mxCell id="20" value="" style="shape=partialRectangle;collapsible=0;dropTarget=0;pointerEvents=0;fillColor=none;points=[[0,0.5],[1,0.5]];portConstraint=eastwest;top=0;left=0;right=0;bottom=0;hachureGap=4;" vertex="1" parent="13">
                    <mxGeometry y="116" width="250" height="20" as="geometry"/>
                </mxCell>
                <mxCell id="21" value="" style="shape=partialRectangle;overflow=hidden;connectable=0;fillColor=none;top=0;left=0;bottom=0;right=0;hachureGap=4;" vertex="1" parent="20">
                    <mxGeometry width="30" height="20" as="geometry">
                        <mxRectangle width="30" height="20" as="alternateBounds"/>
                    </mxGeometry>
                </mxCell>
                <mxCell id="22" value="hourlySentiment                 DOUBLE" style="shape=partialRectangle;overflow=hidden;connectable=0;fillColor=none;top=0;left=0;bottom=0;right=0;align=left;spacingLeft=6;hachureGap=4;" vertex="1" parent="20">
                    <mxGeometry x="30" width="220" height="20" as="geometry">
                        <mxRectangle width="220" height="20" as="alternateBounds"/>
                    </mxGeometry>
                </mxCell>
                <mxCell id="24" value="" style="edgeStyle=none;html=1;entryX=0.5;entryY=0;entryDx=0;entryDy=0;" edge="1" parent="1" source="whLFaRSz3Np-lKLS9v4o-28" target="13">
                    <mxGeometry relative="1" as="geometry"/>
                </mxCell>
            </root>
        </mxGraphModel>
    </diagram>
</mxfile>